# xmcd
#
# Track frame offsets:
#	150
#	17481
#	32966
#	50085
#	65161
#	81591
#	95392
#	109873
#	123974
#	138787
#	153745
#	168977
#	184497
#	197281
#	212862
#	233300
#	248325
#	266743
#	278805
#
# Disc length: 3959 seconds
# Revision: 2
# Processed by: cddbd v1.5.2PL0 Copyright (c) Steve Scherf et al.
# Submitted via: dBpowerAMP V12.0
#
DISCID=0b0f7513
DTITLE=Various Artist - Hit Country 2018
DYEAR=2018
DGENRE=Country Sampler
TTITLE0=The Wolfe Brothers - Ain't Seen It Yet
TTITLE1=Davisson Brothers Band - PO' Boyz
TTITLE2=Kip Moore - Last Shot (Radio Edit)
TTITLE3=The McClymonts - Like We Used To
TTITLE4=Kacey Musgraves - Butterflies
TTITLE5=Old Dominion - Written In The Sand
TTITLE6=Kane Brown - Found You
TTITLE7=The Shires - Guilty
TTITLE8=Walker Hayes - You Broke Up With Me
TTITLE9=Fanny Lumsden - Elastic Waistband
TTITLE10=Lindsay Ell - Criminal
TTITLE11=Gord Bamford - Neon Smoke
TTITLE12=Granger Smith - Happens Like That
TTITLE13=Caitlyn Shadbolt - Me Without You
TTITLE14=O'Shea - I Will Not Give Up
TTITLE15=Jayne Denham - Calamity
TTITLE16=Tailgate Drive - Bury Me In Blue Jeans
TTITLE17=Aleyce Simmonds - Only On My Terms
TTITLE18=Paddy McHugh - Happy Man
EXTD=
EXTT0=
EXTT1=
EXTT2=
EXTT3=
EXTT4=
EXTT5=
EXTT6=
EXTT7=
EXTT8=
EXTT9=
EXTT10=
EXTT11=
EXTT12=
EXTT13=
EXTT14=
EXTT15=
EXTT16=
EXTT17=
EXTT18=
PLAYORDER=
